<svg xmlns="http://www.w3.org/2000/svg" xmlns:xlink="http://www.w3.org/1999/xlink" viewBox="0 0 90.34 68.92"><defs><style>.cls-1{fill:#86abe7;}.cls-2{fill:url(#未命名的渐变_93);}.cls-3{fill:url(#未命名的渐变_343);}.cls-4{fill:url(#未命名的渐变_224);}</style><linearGradient id="未命名的渐变_93" x1="38.6" y1="50" x2="32.61" y2="32.66" gradientUnits="userSpaceOnUse"><stop offset="0.24" stop-color="#86abe7"/><stop offset="0.5" stop-color="#84a9e7"/><stop offset="0.62" stop-color="#7ca4e5"/><stop offset="0.72" stop-color="#6f9be3"/><stop offset="0.8" stop-color="#5d8fdf"/><stop offset="0.87" stop-color="#447edb"/><stop offset="0.94" stop-color="#276ad5"/><stop offset="1" stop-color="#0553cf"/><stop offset="1" stop-color="#0251ce"/></linearGradient><linearGradient id="未命名的渐变_343" x1="42.41" y1="25.73" x2="29.8" y2="24.24" gradientUnits="userSpaceOnUse"><stop offset="0" stop-color="#86abe7"/><stop offset="0.22" stop-color="#83a9e6"/><stop offset="0.38" stop-color="#7aa3e5"/><stop offset="0.52" stop-color="#6a98e2"/><stop offset="0.65" stop-color="#5388dd"/><stop offset="0.77" stop-color="#3674d8"/><stop offset="0.89" stop-color="#135cd1"/><stop offset="0.94" stop-color="#0251ce"/></linearGradient><linearGradient id="未命名的渐变_224" x1="81.95" y1="40.9" x2="69.26" y2="47.46" gradientUnits="userSpaceOnUse"><stop offset="0" stop-color="#86abe7"/><stop offset="0.16" stop-color="#82a8e6"/><stop offset="0.34" stop-color="#749fe4"/><stop offset="0.52" stop-color="#5f90e0"/><stop offset="0.71" stop-color="#407bda"/><stop offset="0.9" stop-color="#1961d2"/><stop offset="1" stop-color="#0251ce"/></linearGradient></defs><title>be</title><g id="图层_2" data-name="图层 2"><g id="图层_1-2" data-name="图层 1"><polygon class="cls-1" points="33.43 8.45 29.61 26.51 29.21 28.39 28.22 32.98 27.75 35.17 20.85 67.39 7.91 67.39 20.13 10.24 33.43 8.45"/><path class="cls-1" d="M51.76,14.29a16.08,16.08,0,0,1-5,11.31,19.33,19.33,0,0,1-4,3C40.3,30.49,34.45,31.84,31,32.51a1.87,1.87,0,0,1-2.17-2.23l.41-1.89h.54c6.14,0,11.25-5.72,12.59-11.59a13.14,13.14,0,0,0,.35-3c0-5.12-3.33-9.71-11.87-9.71-10.51,0-22.46,7-22.46,21.84a16.28,16.28,0,0,0,.34,3.61,1.86,1.86,0,0,1-2.15,2.26C2.44,31.11,0,28.71,0,23.81,0,11.41,15.64,0,32.62,0,45.83,0,51.76,6.92,51.76,14.29Z"/><path class="cls-1" d="M69.65,44.46s0-.07,0-.1c1.87-8.73,6.18-17.94,10.67-17.94,1.7,0,2.24,1.44,2.24,3.68a15,15,0,0,1-2.22,7.71c-2.38,4-6.43,6.84-10.81,7.12l.09-.45Zm5.47,15.93c-4.31,0-6.47-1.44-6.47-7.55,0-.94.07-2,.14-3.1a.16.16,0,0,1,0,0c0-.05,0-.15,0-.28s0-.12,0-.18h0a23.63,23.63,0,0,0,16.63-8.18,16.79,16.79,0,0,0,4-10.78c0-4.49-1.89-8.62-9.88-8.62-18.42,0-24.27,21.65-24.27,32,0,10.15,5.58,14.28,14,14.28,9.2,0,15.84-5,20.75-11a1,1,0,0,0,.21-.56c0-.06,0-.13,0-.19a1.62,1.62,0,0,0-2.71-1.28C84.19,58.17,80.44,60.39,75.12,60.39Z"/><path class="cls-2" d="M53.38,43c0,8.63-4.67,25.88-19.68,25.88-3.86,0-8.9-1.17-8.9-6.65a11.21,11.21,0,0,1,.34-2.61,1.65,1.65,0,0,1,2.62-.95A6.55,6.55,0,0,0,32,60.3c6.56,0,8.9-9.35,8.9-16.18,0-5.54-1.53-10.17-6.38-11.2h0a10.25,10.25,0,0,0-2.15-.21c-.72,0-2.51.09-4.13.27,0,0,10-1.46,14.06-4.06a1.51,1.51,0,0,1,1.21-.18,15.11,15.11,0,0,1,1.83.58C51.6,31.7,53.38,37,53.38,43Z"/><path class="cls-3" d="M46.74,25.6a19.33,19.33,0,0,1-4,3C39.13,31.39,28.22,33,28.22,33l1-4.59h.54c6.14,0,11.25-5.72,12.59-11.59Z"/><path class="cls-4" d="M85.47,41.06a23.63,23.63,0,0,1-16.63,8.18,41,41,0,0,1,.8-4.76l-.09.45c4.38-.28,8.43-3.16,10.81-7.12Z"/></g></g></svg>